<?xml version="1.0"?><svg width="640" height="480" xmlns="http://www.w3.org/2000/svg">
 <g>
  <title>Layer 1</title>
  <path fill="#1b1c1f" id="path16" d="m226.18544,114.503181c-6.379791,0 -11.584335,5.138756 -11.584335,11.538712c0,6.380287 5.204559,11.584312 11.584335,11.584312c6.389587,0 11.538727,-5.204025 11.538696,-11.584312c0,-6.399956 -5.149109,-11.538712 -11.538696,-11.538712zm-5.700958,25.54023c-2.065903,0 -3.739792,1.666656 -3.739807,3.739822c0,17.822723 0.000015,35.679611 0,53.497665c0,2.079361 1.673904,3.739838 3.739807,3.739822l4.378342,0l0,-26.954056l2.599625,0l0,26.954056l4.378326,0c2.070572,0 3.739838,-1.660461 3.739822,-3.739822c0,-17.818054 0.000015,-35.674973 0,-53.497665c0,-2.073151 -1.669235,-3.739822 -3.739822,-3.739822l-11.356293,0zm-9.258331,1.778702c-1.017685,0 -1.869919,0.81073 -1.869904,1.824295l0,25.494629c0,1.028549 0.852188,1.869904 1.869904,1.869904l1.459442,0c1.01564,0 1.869919,-0.841354 1.869919,-1.869904l0,-25.494629c0,-1.012024 -0.854279,-1.824295 -1.869919,-1.824295l-1.459442,0zm28.413513,0c-1.015106,0 -1.82431,0.81073 -1.82431,1.824295l0,25.494629c0,1.028549 0.811783,1.869904 1.82431,1.869904l1.505051,0c1.016663,0 1.82431,-0.841354 1.824295,-1.869904l0,-25.494629c0,-1.012024 -0.807617,-1.824295 -1.824295,-1.824295l-1.505051,0z"/>
 </g>
</svg>